<svg xmlns="http://www.w3.org/2000/svg" viewBox="7.50 7.50 905.50 889.73" width="905.50" height="889.73" role="img" aria-label="TH42 Games">
<defs><linearGradient id="g42" gradientUnits="userSpaceOnUse" x1="6810.00" y1="3660.00" x2="6810.00" y2="90.00"><stop stop-color="#FFE434"/><stop offset="1" stop-color="#E17A00"/></linearGradient></defs>
<g fill="#EDEDED"><g transform="translate(0.000000,534.000000) scale(0.100000,-0.100000)"><path d="M82 4858 l3 -403 565 -5 566 -5 -93 -405 c-51 -223 -147 -646 -214
-940 -66 -294 -129 -571 -139 -615 -27 -116 -238 -1044 -261 -1150 -11 -49
-22 -98 -25 -107 -5 -17 21 -18 440 -18 l445 0 10 38 c6 20 44 186 86 367 41
182 82 357 90 390 8 33 32 141 55 240 22 99 49 218 60 265 61 264 413 1802
431 1882 l12 57 621 3 c593 3 622 4 653 22 56 34 76 91 157 441 42 182 76 333
76 338 0 4 -797 7 -1770 7 l-1770 0 2 -402z"/><path d="M4256 4943 c-38 -175 -77 -354 -87 -398 -9 -44 -65 -307 -124 -585
-59 -278 -108 -511 -110 -517 -3 -10 -86 -13 -370 -13 -201 0 -365 2 -365 3 0
6 44 203 104 464 31 133 56 245 56 248 0 3 -192 4 -427 3 l-427 -3 -78 -330
c-43 -181 -116 -494 -162 -695 -47 -201 -130 -556 -185 -790 -55 -234 -134
-571 -175 -750 -42 -179 -78 -335 -81 -347 l-5 -23 430 0 c236 0 430 4 430 8
0 4 20 93 45 198 25 104 64 268 86 364 53 228 177 754 190 803 l10 37 368 0
369 0 -10 -42 c-13 -57 -124 -569 -148 -683 -11 -49 -40 -184 -65 -300 -25
-115 -84 -385 -130 -600 -46 -214 -109 -505 -140 -645 -30 -139 -55 -258 -55
-262 0 -4 193 -8 429 -8 l429 0 10 43 c6 23 40 177 77 342 74 336 157 708 304
1365 174 776 215 959 486 2190 146 663 268 1213 271 1223 5 16 -20 17 -438 17
l-443 0 -69 -317z"/></g></g><g fill="url(#g42)" transform="translate(0 16.0000)"><g transform="translate(0.000000,534.000000) scale(0.100000,-0.100000)"><path d="M5986 3503 c-133 -205 -400 -618 -551 -856 -66 -103 -225 -348 -353
-545 -287 -439 -427 -659 -441 -692 -11 -26 -141 -554 -141 -574 0 -8 148 -12
528 -14 290 -2 527 -5 528 -5 0 -1 -37 -159 -82 -352 -46 -192 -83 -358 -84
-368 0 -16 18 -17 281 -15 l282 3 47 200 c27 110 66 274 87 365 l39 165 190 3
190 2 53 223 c29 122 59 245 66 274 7 28 10 54 7 57 -3 3 -83 6 -179 6 -95 0
-173 1 -173 3 0 2 59 246 130 543 182 752 410 1710 410 1723 0 8 -107 11 -365
11 l-366 0 -103 -157z m19 -895 c-7 -33 -164 -689 -248 -1036 -24 -100 -46
-185 -49 -187 -3 -3 -113 -4 -245 -3 l-241 3 294 470 c162 259 338 541 391
628 53 86 99 157 101 157 2 0 0 -15 -3 -32z"/><path d="M8120 3650 c-350 -45 -601 -227 -766 -552 -56 -111 -86 -191 -113
-301 -25 -101 -51 -234 -51 -260 0 -16 19 -17 297 -15 l297 3 9 40 c58 266
110 396 194 486 122 130 314 144 434 32 64 -60 90 -127 90 -238 2 -142 -51
-274 -177 -441 -85 -115 -355 -404 -589 -632 -93 -91 -355 -349 -581 -573
l-411 -407 -87 -349 c-47 -191 -86 -351 -86 -355 0 -5 443 -8 985 -8 l984 0
10 38 c77 293 155 592 159 610 l4 22 -588 0 c-324 0 -594 4 -601 8 -8 5 89
104 283 287 684 648 1013 1007 1156 1264 114 205 151 345 152 566 1 138 -2
171 -22 238 -28 99 -78 197 -133 266 -59 72 -180 161 -270 199 -147 61 -412
94 -579 72z"/></g></g>
  <g fill="#EDEDED"><path d="M245.05792499999995 889.2319200000001Q237.95880499999996 889.2319200000001 231.90553749999995 886.9183675Q225.85226999999995 884.604815 221.38362749999993 879.9777100000001Q216.91498499999994 875.3506050000001 214.44296999999995 868.44164Q211.97095499999995 861.532675 211.97095499999995 852.34185V836.74914Q211.97095499999995 827.5583150000001 214.44296999999995 820.6176575000001Q216.91498499999994 813.677 221.47870499999993 809.0182025Q226.04242499999995 804.359405 232.31753999999995 802.0458525Q238.59265499999995 799.7323 246.19885499999995 799.7323H249.68502999999995Q256.53060999999997 799.7323 262.36203 801.8873900000001Q268.19345 804.0424800000001 272.56701499999997 808.162505Q276.94057999999995 812.2825300000001 279.38090249999993 818.2724125000001Q281.82122499999997 824.2622950000001 281.82122499999997 831.9318800000001H262.17187499999994Q262.17187499999994 827.4949300000001 260.87248249999993 823.8502925Q259.57309 820.2056550000001 256.49891749999995 817.9554875000001Q253.42474499999997 815.70532 247.84686499999998 815.70532Q243.72683999999995 815.70532 240.52589749999996 817.35333Q237.32495499999996 819.00134 235.48678999999996 822.67767Q233.64862499999995 826.354 233.64862499999995 832.6291150000001V856.208335Q233.64862499999995 860.8988250000001 234.72616999999997 864.1314600000001Q235.80371499999995 867.364095 237.70526499999994 869.3607225000001Q239.60681499999995 871.3573500000001 242.23729249999997 872.2764325Q244.86776999999995 873.1955150000001 247.91024999999996 873.1955150000001Q251.96688999999998 873.1955150000001 255.23121749999999 871.8644300000001Q258.495545 870.533345 260.397095 867.30071Q262.29864499999996 864.068075 262.29864499999996 858.42681V854.560325H246.76931999999996V840.4888550000001H281.82122499999997V870.5967300000001Q281.82122499999997 876.17461 282.0430725 880.041095Q282.26491999999996 883.90758 282.70861499999995 887.9642200000001H271.10916L268.003295 878.012775Q265.087585 883.2103450000001 259.06601 886.2211325000001Q253.04443499999996 889.2319200000001 246.38900999999996 889.2319200000001Z M324.66948499999995 887.9642200000001 348.629015 801.0H375.18733L399.337015 887.9642200000001H378.35658L361.43278499999997 818.3674900000001H360.86231999999995L344.699145 887.9642200000001ZM340.89604499999996 870.7868850000001V855.828025H382.28645V870.7868850000001Z M442.692355 887.9642200000001V801.0H468.23651L475.779325 856.588645H476.286405L484.01937499999997 801.0H509.500145V887.9642200000001H491.18188V825.6567650000001H490.611415L482.05444 887.9642200000001H467.98297L459.552765 825.6567650000001H458.9823V887.9642200000001Z M561.15892 887.9642200000001V801.0H621.438055L619.21958 817.163175H581.9491999999999V835.6082100000001H616.8109499999999V851.3276900000001H581.9491999999999V871.23058H619.5365049999999L621.7549799999999 887.9642200000001Z M703.838555 889.2319200000001Q696.9295900000001 889.2319200000001 690.6227825000001 887.6789875000001Q684.315975 886.1260550000001 679.371945 882.8617275000001Q674.427915 879.5974000000001 671.57559 874.4632150000001Q668.7232650000001 869.3290300000001 668.7232650000001 862.1665250000001Q668.7232650000001 861.4692900000001 668.7232650000001 860.7720550000001Q668.7232650000001 860.07482 668.850035 859.3142H688.436Q688.3092300000001 859.884665 688.3092300000001 860.32836Q688.3092300000001 860.772055 688.3092300000001 861.34252Q688.3092300000001 864.828695 689.9572400000001 867.3957875000001Q691.6052500000001 869.96288 695.0597325000001 871.3890425000001Q698.514215 872.8152050000001 703.77517 872.8152050000001Q708.909355 872.8152050000001 712.078605 871.8327375000001Q715.2478550000001 870.85027 716.7374025 868.7902575Q718.22695 866.7302450000001 718.22695 863.687765Q718.22695 860.20159 715.6281650000001 858.17327Q713.0293800000001 856.1449500000001 708.8142775000001 854.8455575Q704.5991750000001 853.5461650000001 699.5600675000001 852.3735425000001Q694.5209600000001 851.2009200000001 689.4184675 849.5212175000001Q684.315975 847.8415150000001 680.1008724999999 844.98919Q675.88577 842.1368650000001 673.286985 837.446375Q670.6882 832.755885 670.6882 825.59338Q670.6882 816.84625 675.37869 811.1416Q680.0691800000001 805.43695 687.8338425000001 802.584625Q695.598505 799.7323 704.9161 799.7323Q713.9801550000001 799.7323 721.4912775 802.4261625Q729.0024000000001 805.120025 733.4710425000001 810.7295975000001Q737.939685 816.3391700000001 737.939685 825.276455V826.86108H718.60726V825.7201500000001Q718.60726 822.6142850000001 717.0543275 820.2690400000001Q715.501395 817.923795 712.458915 816.6244025000001Q709.4164350000001 815.32501 704.852715 815.32501Q700.922845 815.32501 698.0071350000001 816.2440925000001Q695.0914250000001 817.163175 693.5384925000001 818.9379550000001Q691.9855600000001 820.7127350000001 691.9855600000001 823.5016750000001Q691.9855600000001 826.9878500000001 694.5526525 829.0161700000001Q697.1197450000001 831.0444900000001 701.3348475 832.2804975000001Q705.5499500000001 833.516505 710.6524425 834.6574350000001Q715.754935 835.7983650000001 720.8257350000001 837.3829900000001Q725.8965350000001 838.967615 730.1750225000001 841.7248625Q734.45351 844.48211 737.1156800000001 848.9824450000001Q739.7778500000001 853.48278 739.8412350000001 860.391745Q739.8412350000001 870.7235000000001 735.2458225 877.0620000000001Q730.6504100000001 883.4005000000001 722.53713 886.3162100000001Q714.42385 889.2319200000001 703.838555 889.2319200000001Z"/></g>
</svg>
